<svg id="visual" viewBox="0 0 900 600" width="900" height="600" xmlns="http://www.w3.org/2000/svg" xmlns:xlink="http://www.w3.org/1999/xlink" version="1.1"><g stroke-width="1" stroke-linejoin="bevel"><path d="M432.4 274.7L360.2 255.7L397.4 313.3Z" fill="#081a28" stroke="#081a28"></path><path d="M360.2 255.7L336.2 318.3L397.4 313.3Z" fill="#297ea6" stroke="#297ea6"></path><path d="M432.4 274.7L396.4 194L360.2 255.7Z" fill="#0c2435" stroke="#0c2435"></path><path d="M483.6 322.3L484.6 253.7L432.4 274.7Z" fill="#0c2435" stroke="#0c2435"></path><path d="M432.4 274.7L469.6 218L396.4 194Z" fill="#246688" stroke="#246688"></path><path d="M484.6 253.7L469.6 218L432.4 274.7Z" fill="#205a7a" stroke="#205a7a"></path><path d="M469.6 410L483.6 322.3L397.4 313.3Z" fill="#19435d" stroke="#19435d"></path><path d="M397.4 313.3L483.6 322.3L432.4 274.7Z" fill="#081a28" stroke="#081a28"></path><path d="M396.4 194L332.2 193L360.2 255.7Z" fill="#297ea6" stroke="#297ea6"></path><path d="M360.2 255.7L279.9 255.7L336.2 318.3Z" fill="#19435d" stroke="#19435d"></path><path d="M332.2 193L279.9 255.7L360.2 255.7Z" fill="#277297" stroke="#277297"></path><path d="M344.2 415L398.4 412L336.2 318.3Z" fill="#0c2435" stroke="#0c2435"></path><path d="M336.2 318.3L398.4 412L397.4 313.3Z" fill="#297ea6" stroke="#297ea6"></path><path d="M399.4 114.3L357.2 134.3L396.4 194Z" fill="#0c2435" stroke="#0c2435"></path><path d="M396.4 194L357.2 134.3L332.2 193Z" fill="#1d4e6b" stroke="#1d4e6b"></path><path d="M332.2 193L258.9 200L279.9 255.7Z" fill="#15384f" stroke="#15384f"></path><path d="M272.9 407L344.2 415L336.2 318.3Z" fill="#00101c" stroke="#00101c"></path><path d="M279.9 255.7L258.9 342.3L336.2 318.3Z" fill="#112e42" stroke="#112e42"></path><path d="M295.9 126.3L258.9 200L332.2 193Z" fill="#081a28" stroke="#081a28"></path><path d="M279.9 255.7L216.7 321.3L258.9 342.3Z" fill="#205a7a" stroke="#205a7a"></path><path d="M398.4 412L469.6 410L397.4 313.3Z" fill="#277297" stroke="#277297"></path><path d="M419.4 467.7L469.6 410L398.4 412Z" fill="#00101c" stroke="#00101c"></path><path d="M559.8 201L481.6 146.3L469.6 218Z" fill="#1d4e6b" stroke="#1d4e6b"></path><path d="M469.6 218L481.6 146.3L396.4 194Z" fill="#15384f" stroke="#15384f"></path><path d="M481.6 146.3L399.4 114.3L396.4 194Z" fill="#0c2435" stroke="#0c2435"></path><path d="M534.8 399L551.8 326.3L483.6 322.3Z" fill="#205a7a" stroke="#205a7a"></path><path d="M483.6 322.3L565.8 281.7L484.6 253.7Z" fill="#205a7a" stroke="#205a7a"></path><path d="M484.6 253.7L559.8 201L469.6 218Z" fill="#0c2435" stroke="#0c2435"></path><path d="M551.8 326.3L565.8 281.7L483.6 322.3Z" fill="#00101c" stroke="#00101c"></path><path d="M258.9 200L219.7 263.7L279.9 255.7Z" fill="#0c2435" stroke="#0c2435"></path><path d="M357.2 134.3L295.9 126.3L332.2 193Z" fill="#246688" stroke="#246688"></path><path d="M258.9 200L194.7 188L219.7 263.7Z" fill="#277297" stroke="#277297"></path><path d="M335.2 81.7L295.9 126.3L357.2 134.3Z" fill="#246688" stroke="#246688"></path><path d="M211.7 382L272.9 407L258.9 342.3Z" fill="#297ea6" stroke="#297ea6"></path><path d="M258.9 342.3L272.9 407L336.2 318.3Z" fill="#081a28" stroke="#081a28"></path><path d="M565.8 281.7L559.8 201L484.6 253.7Z" fill="#205a7a" stroke="#205a7a"></path><path d="M219.7 263.7L216.7 321.3L279.9 255.7Z" fill="#297ea6" stroke="#297ea6"></path><path d="M272.9 407L339.2 452.7L344.2 415Z" fill="#205a7a" stroke="#205a7a"></path><path d="M344.2 415L339.2 452.7L398.4 412Z" fill="#081a28" stroke="#081a28"></path><path d="M486.6 478.7L534.8 399L469.6 410Z" fill="#246688" stroke="#246688"></path><path d="M469.6 410L534.8 399L483.6 322.3Z" fill="#15384f" stroke="#15384f"></path><path d="M625.1 328.3L618.1 264.7L565.8 281.7Z" fill="#00101c" stroke="#00101c"></path><path d="M339.2 452.7L419.4 467.7L398.4 412Z" fill="#19435d" stroke="#19435d"></path><path d="M481.6 146.3L412.4 76.7L399.4 114.3Z" fill="#112e42" stroke="#112e42"></path><path d="M399.4 114.3L335.2 81.7L357.2 134.3Z" fill="#112e42" stroke="#112e42"></path><path d="M487.6 46.7L412.4 76.7L481.6 146.3Z" fill="#297ea6" stroke="#297ea6"></path><path d="M412.4 76.7L335.2 81.7L399.4 114.3Z" fill="#246688" stroke="#246688"></path><path d="M216.7 321.3L211.7 382L258.9 342.3Z" fill="#246688" stroke="#246688"></path><path d="M272.9 407L267.9 446.7L339.2 452.7Z" fill="#081a28" stroke="#081a28"></path><path d="M141.5 316.3L211.7 382L216.7 321.3Z" fill="#19435d" stroke="#19435d"></path><path d="M212.7 448.7L267.9 446.7L272.9 407Z" fill="#19435d" stroke="#19435d"></path><path d="M434.4 537.3L472.6 527.3L419.4 467.7Z" fill="#246688" stroke="#246688"></path><path d="M630.1 190L563.8 146.3L559.8 201Z" fill="#277297" stroke="#277297"></path><path d="M559.8 201L563.8 146.3L481.6 146.3Z" fill="#1d4e6b" stroke="#1d4e6b"></path><path d="M219.7 137.3L194.7 188L258.9 200Z" fill="#1d4e6b" stroke="#1d4e6b"></path><path d="M219.7 263.7L141.5 316.3L216.7 321.3Z" fill="#277297" stroke="#277297"></path><path d="M219.7 137.3L258.9 200L295.9 126.3Z" fill="#19435d" stroke="#19435d"></path><path d="M216.7 56.7L219.7 137.3L295.9 126.3Z" fill="#19435d" stroke="#19435d"></path><path d="M472.6 527.3L486.6 478.7L419.4 467.7Z" fill="#19435d" stroke="#19435d"></path><path d="M419.4 467.7L486.6 478.7L469.6 410Z" fill="#1d4e6b" stroke="#1d4e6b"></path><path d="M625.1 328.3L565.8 281.7L551.8 326.3Z" fill="#1d4e6b" stroke="#1d4e6b"></path><path d="M565.8 281.7L618.1 264.7L559.8 201Z" fill="#081a28" stroke="#081a28"></path><path d="M625.1 328.3L551.8 326.3L612.1 389Z" fill="#00101c" stroke="#00101c"></path><path d="M486.6 478.7L554.8 448.7L534.8 399Z" fill="#205a7a" stroke="#205a7a"></path><path d="M612.1 389L551.8 326.3L534.8 399Z" fill="#297ea6" stroke="#297ea6"></path><path d="M363.2 0L294.9 55.7L335.2 81.7Z" fill="#297ea6" stroke="#297ea6"></path><path d="M335.2 81.7L294.9 55.7L295.9 126.3Z" fill="#19435d" stroke="#19435d"></path><path d="M618.1 84.7L543.8 83.7L563.8 146.3Z" fill="#205a7a" stroke="#205a7a"></path><path d="M563.8 146.3L543.8 83.7L481.6 146.3Z" fill="#00101c" stroke="#00101c"></path><path d="M412.4 76.7L363.2 0L335.2 81.7Z" fill="#081a28" stroke="#081a28"></path><path d="M554.8 448.7L612.1 389L534.8 399Z" fill="#297ea6" stroke="#297ea6"></path><path d="M543.8 83.7L487.6 46.7L481.6 146.3Z" fill="#19435d" stroke="#19435d"></path><path d="M154.5 135.3L153.5 218L194.7 188Z" fill="#15384f" stroke="#15384f"></path><path d="M194.7 188L153.5 218L219.7 263.7Z" fill="#112e42" stroke="#112e42"></path><path d="M211.7 382L212.7 448.7L272.9 407Z" fill="#112e42" stroke="#112e42"></path><path d="M434.4 537.3L419.4 467.7L364.2 539.3Z" fill="#15384f" stroke="#15384f"></path><path d="M156.5 417L212.7 448.7L211.7 382Z" fill="#1d4e6b" stroke="#1d4e6b"></path><path d="M686.3 219L630.1 190L618.1 264.7Z" fill="#15384f" stroke="#15384f"></path><path d="M618.1 264.7L630.1 190L559.8 201Z" fill="#081a28" stroke="#081a28"></path><path d="M124.5 252.7L141.5 316.3L219.7 263.7Z" fill="#277297" stroke="#277297"></path><path d="M630.1 190L613.1 135.3L563.8 146.3Z" fill="#112e42" stroke="#112e42"></path><path d="M419.4 467.7L339.2 452.7L364.2 539.3Z" fill="#19435d" stroke="#19435d"></path><path d="M486.6 478.7L552.8 537.3L554.8 448.7Z" fill="#246688" stroke="#246688"></path><path d="M364.2 539.3L339.2 452.7L295.9 538.3Z" fill="#112e42" stroke="#112e42"></path><path d="M295.9 538.3L339.2 452.7L267.9 446.7Z" fill="#1d4e6b" stroke="#1d4e6b"></path><path d="M88.2 215L124.5 252.7L153.5 218Z" fill="#00101c" stroke="#00101c"></path><path d="M153.5 218L124.5 252.7L219.7 263.7Z" fill="#0c2435" stroke="#0c2435"></path><path d="M428.4 0L363.2 0L412.4 76.7Z" fill="#205a7a" stroke="#205a7a"></path><path d="M141.5 316.3L156.5 417L211.7 382Z" fill="#277297" stroke="#277297"></path><path d="M215.7 528.3L295.9 538.3L267.9 446.7Z" fill="#19435d" stroke="#19435d"></path><path d="M135.5 462.7L156.5 417L58.2 388Z" fill="#19435d" stroke="#19435d"></path><path d="M216.7 56.7L154.5 135.3L219.7 137.3Z" fill="#00101c" stroke="#00101c"></path><path d="M219.7 137.3L154.5 135.3L194.7 188Z" fill="#19435d" stroke="#19435d"></path><path d="M216.7 56.7L295.9 126.3L294.9 55.7Z" fill="#081a28" stroke="#081a28"></path><path d="M489.6 0L428.4 0L487.6 46.7Z" fill="#205a7a" stroke="#205a7a"></path><path d="M487.6 46.7L428.4 0L412.4 76.7Z" fill="#1d4e6b" stroke="#1d4e6b"></path><path d="M292.9 0L216.7 56.7L294.9 55.7Z" fill="#205a7a" stroke="#205a7a"></path><path d="M215.7 528.3L267.9 446.7L212.7 448.7Z" fill="#112e42" stroke="#112e42"></path><path d="M560.8 0L489.6 0L487.6 46.7Z" fill="#00101c" stroke="#00101c"></path><path d="M560.8 0L487.6 46.7L543.8 83.7Z" fill="#15384f" stroke="#15384f"></path><path d="M363.2 0L292.9 0L294.9 55.7Z" fill="#0c2435" stroke="#0c2435"></path><path d="M674.3 119.3L618.1 84.7L613.1 135.3Z" fill="#205a7a" stroke="#205a7a"></path><path d="M613.1 135.3L618.1 84.7L563.8 146.3Z" fill="#205a7a" stroke="#205a7a"></path><path d="M703.3 262.7L686.3 219L618.1 264.7Z" fill="#081a28" stroke="#081a28"></path><path d="M630.1 190L674.3 119.3L613.1 135.3Z" fill="#277297" stroke="#277297"></path><path d="M703.3 262.7L618.1 264.7L625.1 328.3Z" fill="#00101c" stroke="#00101c"></path><path d="M554.8 448.7L624.1 482.7L612.1 389Z" fill="#081a28" stroke="#081a28"></path><path d="M708.3 325.3L703.3 262.7L625.1 328.3Z" fill="#277297" stroke="#277297"></path><path d="M472.6 527.3L552.8 537.3L486.6 478.7Z" fill="#112e42" stroke="#112e42"></path><path d="M487.6 600L552.8 537.3L472.6 527.3Z" fill="#19435d" stroke="#19435d"></path><path d="M487.6 600L472.6 527.3L434.4 537.3Z" fill="#081a28" stroke="#081a28"></path><path d="M135.5 462.7L215.7 528.3L212.7 448.7Z" fill="#081a28" stroke="#081a28"></path><path d="M708.3 325.3L625.1 328.3L704.3 385Z" fill="#19435d" stroke="#19435d"></path><path d="M552.8 537.3L624.1 482.7L554.8 448.7Z" fill="#205a7a" stroke="#205a7a"></path><path d="M154.5 135.3L88.2 215L153.5 218Z" fill="#1d4e6b" stroke="#1d4e6b"></path><path d="M124.5 252.7L74.2 252.7L141.5 316.3Z" fill="#246688" stroke="#246688"></path><path d="M54.2 148.3L88.2 215L154.5 135.3Z" fill="#081a28" stroke="#081a28"></path><path d="M704.3 385L625.1 328.3L612.1 389Z" fill="#205a7a" stroke="#205a7a"></path><path d="M79.2 348.3L156.5 417L141.5 316.3Z" fill="#1d4e6b" stroke="#1d4e6b"></path><path d="M156.5 417L135.5 462.7L212.7 448.7Z" fill="#15384f" stroke="#15384f"></path><path d="M88.2 215L74.2 252.7L124.5 252.7Z" fill="#205a7a" stroke="#205a7a"></path><path d="M686.3 219L674.3 119.3L630.1 190Z" fill="#246688" stroke="#246688"></path><path d="M618.1 84.7L560.8 0L543.8 83.7Z" fill="#00101c" stroke="#00101c"></path><path d="M689.3 84.7L674.3 119.3L743.5 74.7Z" fill="#19435d" stroke="#19435d"></path><path d="M603.1 0L560.8 0L618.1 84.7Z" fill="#277297" stroke="#277297"></path><path d="M74.2 252.7L79.2 348.3L141.5 316.3Z" fill="#205a7a" stroke="#205a7a"></path><path d="M346.2 600L423.4 600L364.2 539.3Z" fill="#1d4e6b" stroke="#1d4e6b"></path><path d="M364.2 539.3L423.4 600L434.4 537.3Z" fill="#15384f" stroke="#15384f"></path><path d="M346.2 600L364.2 539.3L295.9 538.3Z" fill="#277297" stroke="#277297"></path><path d="M291.9 600L346.2 600L295.9 538.3Z" fill="#297ea6" stroke="#297ea6"></path><path d="M672.3 452.7L704.3 385L612.1 389Z" fill="#081a28" stroke="#081a28"></path><path d="M698.3 516.3L672.3 452.7L624.1 482.7Z" fill="#19435d" stroke="#19435d"></path><path d="M624.1 482.7L672.3 452.7L612.1 389Z" fill="#081a28" stroke="#081a28"></path><path d="M558.8 600L614.1 531.3L552.8 537.3Z" fill="#112e42" stroke="#112e42"></path><path d="M552.8 537.3L614.1 531.3L624.1 482.7Z" fill="#246688" stroke="#246688"></path><path d="M423.4 600L487.6 600L434.4 537.3Z" fill="#1d4e6b" stroke="#1d4e6b"></path><path d="M215.7 528.3L291.9 600L295.9 538.3Z" fill="#081a28" stroke="#081a28"></path><path d="M195.7 600L291.9 600L215.7 528.3Z" fill="#246688" stroke="#246688"></path><path d="M292.9 0L188.7 0L216.7 56.7Z" fill="#205a7a" stroke="#205a7a"></path><path d="M216.7 56.7L120.5 63.7L154.5 135.3Z" fill="#246688" stroke="#246688"></path><path d="M188.7 0L120.5 63.7L216.7 56.7Z" fill="#00101c" stroke="#00101c"></path><path d="M0 190L0 276.7L74.2 252.7Z" fill="#00101c" stroke="#00101c"></path><path d="M689.3 84.7L603.1 0L618.1 84.7Z" fill="#19435d" stroke="#19435d"></path><path d="M745.5 201L674.3 119.3L686.3 219Z" fill="#00101c" stroke="#00101c"></path><path d="M674.3 119.3L689.3 84.7L618.1 84.7Z" fill="#297ea6" stroke="#297ea6"></path><path d="M745.5 201L686.3 219L703.3 262.7Z" fill="#297ea6" stroke="#297ea6"></path><path d="M768.5 340.3L746.5 271.7L708.3 325.3Z" fill="#15384f" stroke="#15384f"></path><path d="M708.3 325.3L746.5 271.7L703.3 262.7Z" fill="#246688" stroke="#246688"></path><path d="M0 316.3L58.2 388L79.2 348.3Z" fill="#112e42" stroke="#112e42"></path><path d="M79.2 348.3L58.2 388L156.5 417Z" fill="#15384f" stroke="#15384f"></path><path d="M746.5 271.7L745.5 201L703.3 262.7Z" fill="#1d4e6b" stroke="#1d4e6b"></path><path d="M61.2 80.7L54.2 148.3L154.5 135.3Z" fill="#112e42" stroke="#112e42"></path><path d="M74.2 252.7L0 316.3L79.2 348.3Z" fill="#297ea6" stroke="#297ea6"></path><path d="M487.6 600L558.8 600L552.8 537.3Z" fill="#00101c" stroke="#00101c"></path><path d="M58.2 388L87.2 475.7L135.5 462.7Z" fill="#246688" stroke="#246688"></path><path d="M135.5 462.7L119.5 525.3L215.7 528.3Z" fill="#297ea6" stroke="#297ea6"></path><path d="M87.2 475.7L119.5 525.3L135.5 462.7Z" fill="#112e42" stroke="#112e42"></path><path d="M672.3 452.7L743.5 408L704.3 385Z" fill="#205a7a" stroke="#205a7a"></path><path d="M704.3 385L768.5 340.3L708.3 325.3Z" fill="#081a28" stroke="#081a28"></path><path d="M749.5 471.7L743.5 408L672.3 452.7Z" fill="#15384f" stroke="#15384f"></path><path d="M698.3 516.3L624.1 482.7L614.1 531.3Z" fill="#205a7a" stroke="#205a7a"></path><path d="M743.5 408L768.5 340.3L704.3 385Z" fill="#246688" stroke="#246688"></path><path d="M828.8 206L773.5 150.3L745.5 201Z" fill="#19435d" stroke="#19435d"></path><path d="M119.5 525.3L195.7 600L215.7 528.3Z" fill="#1d4e6b" stroke="#1d4e6b"></path><path d="M188.7 0L127.5 0L120.5 63.7Z" fill="#246688" stroke="#246688"></path><path d="M120.5 63.7L61.2 80.7L154.5 135.3Z" fill="#00101c" stroke="#00101c"></path><path d="M85.2 0L61.2 80.7L120.5 63.7Z" fill="#0c2435" stroke="#0c2435"></path><path d="M640.1 600L698.3 516.3L614.1 531.3Z" fill="#246688" stroke="#246688"></path><path d="M0 190L74.2 252.7L88.2 215Z" fill="#277297" stroke="#277297"></path><path d="M0 464.7L73.2 514.3L87.2 475.7Z" fill="#1d4e6b" stroke="#1d4e6b"></path><path d="M0 190L88.2 215L54.2 148.3Z" fill="#15384f" stroke="#15384f"></path><path d="M0 276.7L0 316.3L74.2 252.7Z" fill="#1d4e6b" stroke="#1d4e6b"></path><path d="M828.8 206L745.5 201L746.5 271.7Z" fill="#277297" stroke="#277297"></path><path d="M745.5 201L773.5 150.3L674.3 119.3Z" fill="#15384f" stroke="#15384f"></path><path d="M689.3 84.7L708.3 0L603.1 0Z" fill="#00101c" stroke="#00101c"></path><path d="M87.2 475.7L73.2 514.3L119.5 525.3Z" fill="#081a28" stroke="#081a28"></path><path d="M119.5 525.3L133.5 600L195.7 600Z" fill="#081a28" stroke="#081a28"></path><path d="M0 464.7L87.2 475.7L58.2 388Z" fill="#277297" stroke="#277297"></path><path d="M0 116.3L0 190L54.2 148.3Z" fill="#246688" stroke="#246688"></path><path d="M773.5 150.3L743.5 74.7L674.3 119.3Z" fill="#15384f" stroke="#15384f"></path><path d="M698.3 516.3L749.5 471.7L672.3 452.7Z" fill="#0c2435" stroke="#0c2435"></path><path d="M832.8 399L811.8 330.3L768.5 340.3Z" fill="#19435d" stroke="#19435d"></path><path d="M558.8 600L640.1 600L614.1 531.3Z" fill="#081a28" stroke="#081a28"></path><path d="M698.3 516.3L769.5 538.3L749.5 471.7Z" fill="#19435d" stroke="#19435d"></path><path d="M0 316.3L0 384L58.2 388Z" fill="#297ea6" stroke="#297ea6"></path><path d="M127.5 0L85.2 0L120.5 63.7Z" fill="#1d4e6b" stroke="#1d4e6b"></path><path d="M61.2 80.7L0 116.3L54.2 148.3Z" fill="#112e42" stroke="#112e42"></path><path d="M81.2 600L133.5 600L119.5 525.3Z" fill="#1d4e6b" stroke="#1d4e6b"></path><path d="M743.5 74.7L708.3 0L689.3 84.7Z" fill="#0c2435" stroke="#0c2435"></path><path d="M832.8 399L768.5 340.3L743.5 408Z" fill="#081a28" stroke="#081a28"></path><path d="M768.5 340.3L811.8 330.3L746.5 271.7Z" fill="#112e42" stroke="#112e42"></path><path d="M0 49.7L0 116.3L61.2 80.7Z" fill="#1d4e6b" stroke="#1d4e6b"></path><path d="M0 384L0 464.7L58.2 388Z" fill="#0c2435" stroke="#0c2435"></path><path d="M73.2 514.3L81.2 600L119.5 525.3Z" fill="#0c2435" stroke="#0c2435"></path><path d="M848.8 266.7L828.8 206L746.5 271.7Z" fill="#205a7a" stroke="#205a7a"></path><path d="M773.5 150.3L824.8 53.7L743.5 74.7Z" fill="#112e42" stroke="#112e42"></path><path d="M743.5 74.7L779.5 0L708.3 0Z" fill="#297ea6" stroke="#297ea6"></path><path d="M640.1 600L704.3 600L698.3 516.3Z" fill="#081a28" stroke="#081a28"></path><path d="M900 268.7L848.8 266.7L900 340.3Z" fill="#297ea6" stroke="#297ea6"></path><path d="M0 600L81.2 600L73.2 514.3Z" fill="#081a28" stroke="#081a28"></path><path d="M85.2 0L0 49.7L61.2 80.7Z" fill="#1d4e6b" stroke="#1d4e6b"></path><path d="M811.8 330.3L848.8 266.7L746.5 271.7Z" fill="#297ea6" stroke="#297ea6"></path><path d="M832.8 399L743.5 408L810.8 484.7Z" fill="#297ea6" stroke="#297ea6"></path><path d="M810.8 484.7L743.5 408L749.5 471.7Z" fill="#15384f" stroke="#15384f"></path><path d="M744.5 600L769.5 538.3L698.3 516.3Z" fill="#00101c" stroke="#00101c"></path><path d="M0 464.7L0 514.3L73.2 514.3Z" fill="#112e42" stroke="#112e42"></path><path d="M769.5 538.3L810.8 484.7L749.5 471.7Z" fill="#00101c" stroke="#00101c"></path><path d="M900 152.3L845.8 133.3L828.8 206Z" fill="#00101c" stroke="#00101c"></path><path d="M828.8 206L845.8 133.3L773.5 150.3Z" fill="#112e42" stroke="#112e42"></path><path d="M824.8 53.7L779.5 0L743.5 74.7Z" fill="#19435d" stroke="#19435d"></path><path d="M704.3 600L744.5 600L698.3 516.3Z" fill="#205a7a" stroke="#205a7a"></path><path d="M769.5 538.3L832.8 516.3L810.8 484.7Z" fill="#0c2435" stroke="#0c2435"></path><path d="M85.2 0L0 0L0 49.7Z" fill="#205a7a" stroke="#205a7a"></path><path d="M845.8 133.3L824.8 53.7L773.5 150.3Z" fill="#0c2435" stroke="#0c2435"></path><path d="M900 0L810.8 0L824.8 53.7Z" fill="#15384f" stroke="#15384f"></path><path d="M824.8 53.7L810.8 0L779.5 0Z" fill="#297ea6" stroke="#297ea6"></path><path d="M833.8 600L832.8 516.3L769.5 538.3Z" fill="#081a28" stroke="#081a28"></path><path d="M900 459.7L900 413L832.8 399Z" fill="#15384f" stroke="#15384f"></path><path d="M900 340.3L848.8 266.7L811.8 330.3Z" fill="#15384f" stroke="#15384f"></path><path d="M848.8 266.7L900 212L828.8 206Z" fill="#081a28" stroke="#081a28"></path><path d="M845.8 133.3L900 67.7L824.8 53.7Z" fill="#297ea6" stroke="#297ea6"></path><path d="M900 340.3L811.8 330.3L832.8 399Z" fill="#0c2435" stroke="#0c2435"></path><path d="M900 268.7L900 212L848.8 266.7Z" fill="#00101c" stroke="#00101c"></path><path d="M900 413L900 340.3L832.8 399Z" fill="#0c2435" stroke="#0c2435"></path><path d="M0 514.3L0 600L73.2 514.3Z" fill="#19435d" stroke="#19435d"></path><path d="M900 212L900 152.3L828.8 206Z" fill="#15384f" stroke="#15384f"></path><path d="M900 459.7L832.8 399L810.8 484.7Z" fill="#297ea6" stroke="#297ea6"></path><path d="M832.8 516.3L900 459.7L810.8 484.7Z" fill="#1d4e6b" stroke="#1d4e6b"></path><path d="M900 535.3L900 459.7L832.8 516.3Z" fill="#00101c" stroke="#00101c"></path><path d="M900 152.3L900 67.7L845.8 133.3Z" fill="#15384f" stroke="#15384f"></path><path d="M744.5 600L833.8 600L769.5 538.3Z" fill="#1d4e6b" stroke="#1d4e6b"></path><path d="M833.8 600L900 535.3L832.8 516.3Z" fill="#15384f" stroke="#15384f"></path><path d="M900 67.7L900 0L824.8 53.7Z" fill="#15384f" stroke="#15384f"></path><path d="M833.8 600L900 600L900 535.3Z" fill="#277297" stroke="#277297"></path></g></svg>